<svg width="19" height="19" viewBox="0 0 19 19" fill="none" xmlns="http://www.w3.org/2000/svg">
<path d="M0.791504 17.4167H18.2082" stroke="#292D32" stroke-width="1.5" stroke-miterlimit="10" stroke-linecap="round" stroke-linejoin="round"/>
<path d="M15.6592 17.4246V13.8937" stroke="#292D32" stroke-width="1.5" stroke-miterlimit="10" stroke-linecap="round" stroke-linejoin="round"/>
<path d="M15.6748 8.62128C14.7089 8.62128 13.9331 9.39712 13.9331 10.363V12.16C13.9331 13.1258 14.7089 13.9017 15.6748 13.9017C16.6406 13.9017 17.4165 13.1258 17.4165 12.16V10.363C17.4165 9.39712 16.6406 8.62128 15.6748 8.62128Z" stroke="#292D32" stroke-width="1.5" stroke-miterlimit="10" stroke-linecap="round" stroke-linejoin="round"/>
<path d="M1.6626 17.4167V4.77378C1.6626 3.18253 2.4543 2.38293 4.02972 2.38293H8.96179C10.5372 2.38293 11.3209 3.18253 11.3209 4.77378V17.4167" stroke="#292D32" stroke-width="1.5" stroke-miterlimit="10" stroke-linecap="round" stroke-linejoin="round"/>
<path d="M4.5918 6.53125H8.51056" stroke="#292D32" stroke-width="1.5" stroke-miterlimit="10" stroke-linecap="round" stroke-linejoin="round"/>
<path d="M4.5918 9.5H8.51056" stroke="#292D32" stroke-width="1.5" stroke-miterlimit="10" stroke-linecap="round" stroke-linejoin="round"/>
<path d="M6.53125 17.4167V14.4479" stroke="#292D32" stroke-width="1.5" stroke-miterlimit="10" stroke-linecap="round" stroke-linejoin="round"/>
</svg>
